<svg width="65" height="29" viewBox="0 0 65 29" fill="none" xmlns="http://www.w3.org/2000/svg">
<path d="M60.9372 0C58.6934 0 56.8745 1.62296 56.8745 3.62496V25.3747C56.8745 27.3767 58.6934 28.9997 60.9372 28.9997C63.1809 28.9997 64.9999 27.3767 64.9999 25.3747V3.62496C64.9999 1.62296 63.1809 0 60.9372 0ZM60.9372 6.04167C59.4414 6.04167 58.2288 4.95973 58.2288 3.62507C58.2288 2.29041 59.4414 1.20847 60.9372 1.20847C62.433 1.20847 63.6456 2.29041 63.6456 3.62507C63.6457 4.95962 62.433 6.04167 60.9372 6.04167Z" fill="white"/>
<path d="M16.248 19.333C14.7521 19.333 13.5396 20.4149 13.5396 21.7496C13.5396 23.0843 14.7521 24.1662 16.248 24.1662C17.7438 24.1662 18.9564 23.0843 18.9564 21.7496C18.9565 20.4149 17.7438 19.333 16.248 19.333Z" fill="white"/>
<path d="M24.3407 0.198046C22.6965 -0.282148 20.891 0.199632 19.8123 1.4064L0.853108 23.1562C-0.522364 24.7379 -0.200396 27.015 1.57233 28.2423C1.57271 28.2426 1.57322 28.2429 1.5736 28.2432C3.35762 29.4187 5.86214 29.1356 7.26135 27.6003L18.9564 14.1904V25.3746C18.9564 27.3766 20.7754 28.9996 23.0191 28.9996C25.2628 28.9996 27.0818 27.3766 27.0818 25.3746V3.62488C27.0813 2.0777 25.9804 0.701348 24.3407 0.198046Z" fill="white"/>
<path d="M50.1035 0H33.8527C31.609 0 29.79 1.62296 29.79 3.62496C29.79 5.62695 31.609 7.24991 33.8527 7.24991H37.9154V25.3747C37.9154 27.3767 39.7343 28.9997 41.9781 28.9997C44.2218 28.9997 46.0408 27.3767 46.0408 25.3747V7.24991H50.1035C52.3472 7.24991 54.1661 5.62695 54.1661 3.62496C54.1661 1.62296 52.3472 0 50.1035 0Z" fill="white"/>
</svg>
