<svg width="50" height="50" viewBox="0 0 50 50" fill="none" xmlns="http://www.w3.org/2000/svg">
<path d="M48.7029 12.6815C48.5618 9.4829 48.4837 5.16124 48.5255 1.96035C48.527 1.81762 48.4967 1.69192 48.4535 1.5735C48.537 0.875987 47.991 0.139932 46.8007 0.163235C31.7742 0.459113 16.7518 0.0175921 1.72608 2.91783e-06C0.475791 -0.00178961 -0.0712663 0.822659 0.0823697 1.54628C0.0326508 1.67198 -0.00213738 1.80709 0.000102214 1.96102C0.226898 15.4149 0.843085 34.7462 0.862494 48.2024C0.862494 48.5044 0.976564 48.7491 1.15931 48.9436C1.2692 49.5136 1.81581 50.0177 2.80422 49.9995C9.29874 49.8783 15.7962 49.8004 22.2858 49.5615C28.0699 49.3487 35.278 49.6337 40.8072 48.2178C42.7641 47.716 44.5148 46.9741 46.0167 45.9006C48.7606 43.9379 49.6977 41.3033 49.9334 38.5272C50.1602 35.8601 49.7416 33.0629 49.6581 30.6058C49.4451 24.2587 48.981 19.0274 48.7029 12.6815ZM39.1953 36.6792C38.1377 36.6837 37.1164 37.3032 37.5887 38.2549C38.5394 40.1693 38.9738 42.5462 37.5121 44.3774C35.7447 46.5916 32.5915 46.5313 29.5929 46.8151C27.7589 46.9886 25.8096 46.8966 23.9616 46.9358C22.5231 46.9659 4.30863 47.2992 4.30863 47.3528C4.26623 34.4012 3.69528 15.5727 3.46475 2.6219C17.3371 2.66683 31.2072 3.02444 45.0795 2.80194C45.0265 13.4353 46.2828 28.8066 46.357 37.2103C44.2053 36.7006 41.9808 36.4856 39.6843 36.6011C39.5046 36.6097 39.3461 36.6405 39.1953 36.6792ZM40.5509 45.5319C41.9436 43.7507 42.2916 41.5649 41.5669 39.1954C43.2447 39.2444 44.899 39.4872 46.4661 39.9856C46.4722 39.9998 46.4774 40.0152 46.4836 40.03C45.9756 42.8375 43.6087 44.5601 40.5509 45.5319Z" fill="black"/>
<path d="M17.2107 27.087C11.8924 27.3175 9.97009 19.6518 15.3995 19.1253C17.6013 18.912 17.6293 16.2876 15.3995 16.5039C5.39908 17.4733 7.40292 30.1324 17.2107 29.7086C19.4495 29.6118 19.4621 26.9898 17.2107 27.087Z" fill="black"/>
<path d="M25.6484 20.8115C24.6811 19.5414 24.958 19.1033 26.8623 18.6903C29.0215 18.2215 28.1026 15.6919 25.933 16.1626C21.8105 17.0569 20.6346 19.349 22.632 22.1344C23.4466 23.2705 24.5343 24.2828 25.3588 25.4153C26.3418 26.7664 24.8819 26.7435 23.0335 26.8927C20.8178 27.072 20.7954 29.6957 23.0335 29.5141C27.1754 29.1791 30.5984 27.6909 28.5242 24.313C27.7615 23.0718 26.5499 21.9961 25.6484 20.8115Z" fill="black"/>
<path d="M34.9641 20.8115C33.9967 19.5414 34.2741 19.1033 36.1779 18.6903C38.3372 18.2215 37.4184 15.6919 35.2492 16.1626C31.1263 17.0569 29.9504 19.349 31.9481 22.1344C32.7624 23.2705 33.8504 24.2828 34.6746 25.4153C35.6579 26.7664 34.1977 26.7435 32.3493 26.8927C30.1339 27.072 30.1112 29.6957 32.3493 29.5141C36.4912 29.1791 39.9143 27.6909 37.8399 24.313C37.0772 23.0718 35.8656 21.9961 34.9641 20.8115Z" fill="black"/>
</svg>
