<svg width="25" height="25" viewBox="0 0 25 25" fill="none" xmlns="http://www.w3.org/2000/svg">
<path d="M23.6702 0H1.32979C0.595479 0 0 0.595479 0 1.32979V23.6702C0 24.4045 0.595479 25 1.32979 25H23.6702C24.4048 25 25 24.4045 25 23.6702V1.32979C25 0.595479 24.4048 0 23.6702 0ZM17.8005 5.68191L15.8787 5.68271C14.3723 5.68271 14.0806 6.39867 14.0806 7.44947V9.76622H17.6739L17.6729 13.3949H14.0806V22.7066H10.333V13.3949H7.19947V9.76622H10.333V7.09016C10.333 3.98457 12.2301 2.29335 15 2.29335L17.8005 2.29787V5.68191Z" fill="black"/>
</svg>
