<svg width="25" height="25" viewBox="0 0 25 25" fill="none" xmlns="http://www.w3.org/2000/svg">
<path d="M25 23.6702C25 24.4045 24.4048 25 23.6702 25H1.32979C0.595213 25 0 24.4045 0 23.6702V1.32979C0 0.595479 0.595213 0 1.32979 0H23.6702C24.4048 0 25 0.595479 25 1.32979V23.6702ZM18.2234 7.52899C15.6221 7.52899 13.513 9.72819 13.513 12.4407C13.513 15.154 15.6221 17.3527 18.2234 17.3527C20.8245 17.3527 22.9338 15.1537 22.9338 12.4407C22.9332 9.72819 20.8245 7.52899 18.2234 7.52899ZM6.64495 7.52899C4.11622 7.52899 2.06649 9.75479 2.06649 12.5003C2.06649 15.2457 4.11622 17.471 6.64495 17.471C9.17314 17.471 11.2234 15.2455 11.2234 12.5C11.2234 9.75452 9.17314 7.52899 6.64495 7.52899Z" fill="black"/>
</svg>
