<svg width="50" height="50" viewBox="0 0 50 50" fill="none" xmlns="http://www.w3.org/2000/svg">
<path d="M49.3897 0.610156C48.999 0.219434 48.469 0 47.9165 0L2.0832 0.00292969C0.932617 0.00292969 0 0.935645 0 2.08623V47.9166C0 49.0672 0.932812 50 2.0833 50H47.9166C49.0672 50 49.9999 49.0672 49.9999 47.9167V2.0833C50 1.53066 49.7804 1.00088 49.3897 0.610156ZM45.8333 45.8333H4.1667V4.16943L45.8334 4.1668V45.8333H45.8333Z" fill="black"/>
<path d="M21.3137 26.8795C20.422 26.8795 19.7775 27.4258 19.6719 28.2712C19.5663 29.116 19.5025 29.6258 18.1988 29.6258C16.9538 29.6258 16.5126 29.1604 16.5126 27.8475V22.1339C16.5126 20.6619 17.1038 20.374 18.125 20.374C19.1779 20.374 19.6239 20.7323 19.6648 21.6108C19.6651 21.6193 19.6657 21.6278 19.6664 21.6361C19.7168 22.3472 20.2457 23.0648 21.3137 23.0648C21.8098 23.0648 22.9636 22.8914 22.9636 21.2859C22.9636 19.2386 21.3017 17.1661 18.1251 17.1661C15.0951 17.1661 13.2129 19.0697 13.2129 22.1339V27.8475C13.213 30.9695 15.0287 32.8331 18.07 32.8331C21.2828 32.8331 22.9638 30.7423 22.9638 28.6769C22.9636 27.0547 21.8099 26.8795 21.3137 26.8795Z" fill="black"/>
<path d="M36.1921 24.1713C36.9799 24.1713 37.6207 23.489 37.6207 22.6502C37.6207 21.8359 36.9328 21.148 36.1187 21.148H35.5337L35.8387 19.239C35.8475 19.1847 35.8518 19.1297 35.8518 19.0748C35.8518 18.1761 35.1504 17.4985 34.2204 17.4985C33.4931 17.4985 32.8855 17.9478 32.7427 18.591C32.7381 18.6117 32.7342 18.6325 32.7309 18.6535L32.3356 21.1479H31.2722L31.5773 19.239C31.5861 19.1846 31.5904 19.1297 31.5904 19.0746C31.5904 18.1759 30.8891 17.4983 29.9589 17.4983C29.2326 17.4983 28.625 17.9469 28.4815 18.5893C28.4769 18.6106 28.4728 18.632 28.4693 18.6534L28.074 21.1478H26.9364C26.1456 21.1478 25.5262 21.8077 25.5262 22.65C25.5262 23.5314 26.1503 24.1711 27.0102 24.1711H27.57L27.4401 25.0364H26.3096C25.5188 25.0364 24.8994 25.7044 24.8994 26.5572C24.8991 27.428 25.5234 28.0599 26.3833 28.0599H26.9277L26.5876 30.3681C26.5803 30.4184 26.5765 30.4691 26.5765 30.5201C26.5765 31.404 27.285 32.0963 28.1894 32.0963C28.8416 32.0963 29.5991 31.6474 29.7162 30.8289L30.1497 28.0599H31.1827L30.8312 30.3628C30.8232 30.4148 30.8192 30.4674 30.8192 30.5201C30.8192 31.404 31.5278 32.0963 32.4324 32.0963C33.1499 32.0963 33.792 31.6091 33.9591 30.9377C33.9666 30.9076 33.9727 30.8772 33.9775 30.8465L34.4117 28.06H35.5657C36.3535 28.06 36.9944 27.386 36.9944 26.5575C36.9944 25.7331 36.3063 25.0367 35.4918 25.0367H34.9103L35.0508 24.1714H36.1921V24.1713ZM31.6883 25.0365H30.6413L30.7765 24.1712H31.8235L31.6883 25.0365Z" fill="black"/>
</svg>
