<svg width="28" height="27" viewBox="0 0 28 27" fill="none" xmlns="http://www.w3.org/2000/svg">
<path d="M25.3497 17.3098C25.5483 16.4818 25.6549 15.6378 25.6549 14.793C25.6549 10.8728 23.579 7.30293 20.1013 5.24431C19.8892 5.11931 19.614 5.18267 19.4844 5.38526C19.3544 5.58828 19.4203 5.85336 19.631 5.97836C22.8416 7.87923 24.7584 11.1741 24.7584 14.793C24.7584 15.537 24.6687 16.2805 24.5015 17.0116C24.2949 16.9702 24.081 16.9482 23.8618 16.9482C22.1315 16.9482 20.7239 18.3021 20.7239 19.9654C20.7239 21.6288 22.1315 22.9827 23.8618 22.9827C25.5922 22.9827 26.9998 21.6288 26.9998 19.9654C26.9998 18.8193 26.3314 17.8206 25.3497 17.3098ZM23.8618 22.1206C22.6259 22.1206 21.6205 21.1538 21.6205 19.9654C21.6205 18.7771 22.6259 17.8103 23.8618 17.8103C25.0977 17.8103 26.1032 18.7771 26.1032 19.9654C26.1032 21.1538 25.0977 22.1206 23.8618 22.1206Z" fill="black" stroke="#242323" stroke-width="2"/>
<path d="M18.1111 24.3543C16.8044 24.8741 15.4215 25.1379 14 25.1379C11.1378 25.1379 8.38445 24.028 6.37169 22.081C6.93024 21.5357 7.27586 20.7892 7.27586 19.9655C7.27586 18.3021 5.86828 16.9482 4.13793 16.9482C2.40759 16.9482 1 18.3021 1 19.9655C1 21.6288 2.40759 22.9827 4.13793 22.9827C4.68752 22.9827 5.20393 22.8452 5.65355 22.6056C7.84069 24.7655 10.8594 26 14 26C15.5398 26 17.0384 25.7142 18.4541 25.1504C18.6827 25.0594 18.7916 24.8073 18.697 24.587C18.6024 24.3676 18.3398 24.2633 18.1111 24.3543ZM1.89655 19.9655C1.89655 18.7771 2.90203 17.8103 4.13793 17.8103C5.37383 17.8103 6.37931 18.7771 6.37931 19.9655C6.37931 21.1538 5.37383 22.1207 4.13793 22.1207C2.90203 22.1207 1.89655 21.1538 1.89655 19.9655Z" fill="black" stroke="#242323" stroke-width="2"/>
<path d="M2.79315 14.4539C2.80391 14.4547 2.81467 14.4552 2.82498 14.4552C3.05853 14.4552 3.25488 14.2819 3.27191 14.0543C3.59109 9.7056 6.67253 6.07155 10.9912 4.86724C11.3741 6.1181 12.5768 7.03448 14 7.03448C15.7304 7.03448 17.138 5.6806 17.138 4.01724C17.138 2.35388 15.7304 1 14 1C12.2737 1 10.8688 2.34784 10.8626 4.00647C6.11936 5.27672 2.72636 9.24138 2.3776 13.994C2.36012 14.231 2.54615 14.4375 2.79315 14.4539ZM14 1.86207C15.2359 1.86207 16.2414 2.82888 16.2414 4.01724C16.2414 5.2056 15.2359 6.17241 14 6.17241C12.7642 6.17241 11.7587 5.2056 11.7587 4.01724C11.7587 2.82888 12.7642 1.86207 14 1.86207Z" fill="black" stroke="#242323" stroke-width="2"/>
</svg>
