<svg width="271" height="115" viewBox="0 0 271 115" fill="none" xmlns="http://www.w3.org/2000/svg">
<path fill-rule="evenodd" clip-rule="evenodd" d="M0.5 -0.5H1H270H270.5V0V114V114.5H270H1H0.5V114V0V-0.5ZM1.5 0.5V113.5H269.5V0.5H1.5ZM136 12.0364C135.779 12.0364 135.557 12.13 135.475 12.3177L126.552 32.7158C126.29 33.2284 126.047 33.7319 125.813 34.2177L125.807 34.2293C123.994 37.985 122.795 40.4679 116.518 39.3439C116.318 39.3084 116.109 39.3689 115.976 39.5033C115.843 39.6377 115.808 39.8229 115.882 39.987C116.513 41.3771 117.827 44.2688 116.181 47.8602C116.098 48.0406 116.151 48.2451 116.312 48.3795C116.476 48.5159 116.713 48.5529 116.923 48.477C117.173 48.3858 117.509 48.3364 117.874 48.3364C118.895 48.3364 119.918 48.6874 120.482 49.2327C121.797 50.5018 126.621 53.9665 133.064 54.7489C133.09 54.7518 133.115 54.7527 133.141 54.7527C133.271 54.7527 133.399 54.7159 133.5 54.6439C133.622 54.5565 133.693 54.4296 133.701 54.2952C133.715 53.9947 133.725 53.7002 133.721 53.5639C133.714 53.3748 133.576 53.2047 133.371 53.1327C129.302 51.7042 126.048 47.2963 127.873 43.2758C128.682 41.6858 133.042 31.818 135.355 26.5812L135.597 26.0333L136 25.1164L136.402 26.0314L136.611 26.5038C138.915 31.7199 143.313 41.677 144.118 43.257C145.958 47.3073 142.747 51.7064 138.715 53.1214C138.504 53.1953 138.365 53.444 138.365 53.6389C138.366 53.9519 138.366 54.0351 138.384 54.2895C138.393 54.4239 138.467 54.5482 138.588 54.6327C138.71 54.7171 138.867 54.7559 139.023 54.7377C145.395 53.9639 150.204 50.498 151.52 49.2289C152.084 48.6846 153.107 48.3327 154.128 48.3327C154.492 48.3327 154.83 48.383 155.079 48.4733C155.288 48.5491 155.526 48.5121 155.69 48.3758C155.852 48.2414 155.902 48.0359 155.819 47.8564C154.172 44.266 155.487 41.3743 156.118 39.9852C156.192 39.821 156.157 39.6358 156.024 39.5014C155.891 39.367 155.68 39.3056 155.482 39.342C149.206 40.4655 148.005 37.98 146.19 34.2224L146.187 34.2158C145.953 33.7291 145.71 33.2269 145.459 32.7383L136.525 12.3177C136.443 12.13 136.221 12.0364 136 12.0364ZM116.073 51.9532L116.073 51.9532C115.846 52.031 115.684 52.0865 115.424 52.1389C115.424 52.1389 122.967 60.0476 136.085 60.0083C149.451 59.966 156.576 52.2214 156.576 52.2214C156.406 52.1347 156.272 52.0729 156.104 51.9961L156.104 51.9961C156.035 51.9641 155.959 51.9296 155.873 51.8895C148.673 56.678 138.794 60.0244 136.042 55.8158C134.542 59.2891 125.129 57.5131 116.363 51.8558C116.251 51.892 116.158 51.9242 116.073 51.9532ZM77.4668 79.4316C77.4668 79.3184 77.3906 79.2617 77.2383 79.2617L76.4707 79.3262L75.293 79.25C75.0273 79.25 74.8945 79.3242 74.8945 79.4727C74.8945 79.6211 75.0625 79.6953 75.3984 79.6953C75.5977 79.6953 75.7539 79.7246 75.8672 79.7832C75.9531 79.8262 75.9961 79.9395 75.9961 80.123V81.3945C75.9961 81.7461 75.916 82.0234 75.7559 82.2266C75.5059 82.5352 74.9727 82.6895 74.1562 82.6895C73.6406 82.6895 73.1641 82.5879 72.7266 82.3848C72.293 82.1777 71.918 81.8965 71.6016 81.541C70.9336 80.7832 70.5996 79.8574 70.5996 78.7637C70.5996 77.7402 70.8906 76.9277 71.4727 76.3262C71.75 76.0371 72.0859 75.8164 72.4805 75.6641C72.8789 75.5078 73.3633 75.4297 73.9336 75.4297C74.5039 75.4297 75.0234 75.5469 75.4922 75.7812C75.7266 75.8984 75.9277 76.043 76.0957 76.2148C76.2637 76.3867 76.375 76.5703 76.4297 76.7656C76.4883 76.957 76.5684 77.0527 76.6699 77.0527C76.7754 77.0527 76.8281 76.9766 76.8281 76.8242C76.8281 76.7773 76.8203 76.6562 76.8047 76.4609C76.8008 76.375 76.791 76.2207 76.7754 75.998C76.7637 75.7754 76.7168 75.6113 76.6348 75.5059C76.5918 75.4512 76.5117 75.3984 76.3945 75.3477C75.7969 75.1055 74.9941 74.9844 73.9863 74.9844C72.627 74.9844 71.5352 75.3691 70.7109 76.1387C69.8945 76.9043 69.4863 77.918 69.4863 79.1797C69.4863 80.3008 69.8555 81.2285 70.5938 81.9629C71.4023 82.7637 72.5078 83.1641 73.9102 83.1641C74.3164 83.1641 74.7617 83.1152 75.2461 83.0176C75.4766 82.9707 75.7012 82.916 75.9199 82.8535C76.1387 82.7871 76.332 82.7129 76.5 82.6309C76.668 82.5488 76.8027 82.4609 76.9043 82.3672C77.0059 82.2734 77.0566 82.1855 77.0566 82.1035C77.0566 82.0215 77.0469 81.9375 77.0273 81.8516C77.0078 81.7617 76.9883 81.5742 76.9688 81.2891C76.9641 81.2425 76.9601 81.1966 76.9569 81.1514C76.9546 81.1208 76.9528 81.0905 76.9512 81.0605C76.9473 80.9824 76.9453 80.8223 76.9453 80.5801C76.9453 80.3379 76.9648 80.1309 77.0039 79.959C77.0273 79.8691 77.0566 79.8027 77.0918 79.7598C77.1309 79.7129 77.1855 79.6758 77.2559 79.6484C77.3301 79.6172 77.3828 79.5879 77.4141 79.5605C77.4492 79.5293 77.4668 79.4863 77.4668 79.4316ZM81.852 82.8711C81.852 83.0156 81.9594 83.0879 82.1742 83.0879C82.2953 83.0879 82.4008 83.082 82.4906 83.0703C82.5805 83.0625 82.6723 83.0527 82.766 83.041C82.8598 83.0332 82.9984 83.0215 83.182 83.0059C83.3656 82.9902 83.9887 83.0078 85.0512 83.0586C85.477 83.082 85.7914 83.0977 85.9945 83.1055C86.1703 83.1094 86.3383 83.1113 86.4984 83.1113C86.6586 83.1152 86.8246 83.1172 86.9965 83.1172C87.1684 83.1172 87.2836 83.0781 87.3422 83C87.3812 82.9531 87.4164 82.8848 87.4477 82.7949C87.4789 82.7051 87.5238 82.5605 87.5824 82.3613C87.641 82.1582 87.6859 82.0059 87.7172 81.9043C87.7445 81.8301 87.7582 81.7695 87.7582 81.7227C87.7582 81.6094 87.7191 81.5527 87.641 81.5527C87.5629 81.5527 87.4848 81.623 87.4066 81.7637C87.227 82.084 86.9477 82.3008 86.5687 82.4141C86.3773 82.4727 86.1488 82.5117 85.8832 82.5312C85.6215 82.5508 85.3051 82.5605 84.934 82.5605C84.5629 82.5605 84.2191 82.5254 83.9027 82.4551C83.8637 81.8926 83.8441 81.1797 83.8441 80.3164V78.9277C84.2309 78.8848 84.6664 78.8633 85.1508 78.8633C85.6352 78.8633 85.9398 78.8945 86.0648 78.957C86.1469 79 86.1957 79.0586 86.2113 79.1328C86.2309 79.207 86.2406 79.3203 86.2406 79.4727C86.2406 79.6211 86.2973 79.6953 86.4105 79.6953C86.5434 79.6953 86.6098 79.5547 86.6098 79.2734L86.5863 78.8281L86.7914 77.9961C86.7914 77.8867 86.7387 77.832 86.6332 77.832C86.5512 77.832 86.4437 77.9355 86.3109 78.1426C86.2445 78.252 86.1352 78.3203 85.9828 78.3477C85.8969 78.3672 85.7875 78.3789 85.6547 78.3828C85.5258 78.3867 85.307 78.3887 84.9984 78.3887C84.6937 78.3887 84.309 78.3613 83.8441 78.3066V75.8398C83.8441 75.7422 83.8559 75.6797 83.8793 75.6523C83.9066 75.625 83.9672 75.6113 84.0609 75.6113H84.5824C85.5316 75.6113 86.182 75.6641 86.5336 75.7695C86.7133 75.8242 86.8441 75.8945 86.9262 75.9805C87.0121 76.0625 87.0707 76.1504 87.102 76.2441C87.1371 76.334 87.1645 76.3926 87.184 76.4199C87.2035 76.4434 87.2387 76.4551 87.2895 76.4551C87.3402 76.4551 87.3793 76.4258 87.4066 76.3672C87.434 76.3047 87.4574 76.1855 87.477 76.0098C87.4965 75.8301 87.5082 75.6953 87.5121 75.6055C87.516 75.5391 87.518 75.4785 87.518 75.4238C87.5203 75.3909 87.522 75.3574 87.5229 75.3231C87.5235 75.3003 87.5238 75.2773 87.5238 75.2539C87.5238 75.1914 87.5062 75.1426 87.4711 75.1074C87.4398 75.0723 87.2758 75.0547 86.9789 75.0547C86.6859 75.0547 86.1586 75.0703 85.3969 75.1016C85.1078 75.1133 84.8461 75.125 84.6117 75.1367C84.3773 75.1445 84.1547 75.1484 83.9437 75.1484C83.7367 75.1484 83.4516 75.1328 83.0883 75.1016C82.9516 75.0898 82.8148 75.0801 82.6781 75.0723C82.5453 75.0605 82.3734 75.0547 82.1625 75.0547C81.9555 75.0547 81.852 75.127 81.852 75.2715C81.852 75.3848 81.9223 75.4414 82.0629 75.4414L82.35 75.418C82.4633 75.418 82.557 75.4395 82.6312 75.4824C82.7055 75.5254 82.7719 75.6309 82.8305 75.7988C82.893 75.9629 82.9242 76.3652 82.9242 77.0059V81.1602C82.9242 81.8047 82.8812 82.2344 82.7953 82.4492C82.7172 82.6367 82.5687 82.7305 82.35 82.7305L82.0629 82.7012C81.9223 82.7012 81.852 82.7578 81.852 82.8711ZM92.2312 82.8711C92.2312 83.0156 92.3582 83.0879 92.6121 83.0879C92.7371 83.0879 92.9656 83.0625 93.2977 83.0117C93.6336 82.9648 94.0359 82.9785 94.5047 83.0527C94.6492 83.0762 94.7859 83.0879 94.9148 83.0879C95.1648 83.0879 95.2898 83.0156 95.2898 82.8711C95.2898 82.7578 95.2195 82.7012 95.0789 82.7012L94.7977 82.7305C94.6727 82.7305 94.5711 82.6992 94.493 82.6367C94.4187 82.5703 94.3543 82.4531 94.2996 82.2852C94.2488 82.1133 94.2234 81.7324 94.2234 81.1426V79.5547C94.4109 79.543 94.6297 79.5371 94.8797 79.5371C95.1336 79.5371 95.3211 79.582 95.4422 79.6719C95.5633 79.7578 95.6902 79.9043 95.823 80.1113L97.2996 82.4727C97.5184 82.8242 97.7625 83 98.032 83H99.157C99.3719 83 99.4793 82.9453 99.4793 82.8359C99.4793 82.7227 99.3797 82.6562 99.1805 82.6367C99.0672 82.625 98.9734 82.6094 98.8992 82.5898C98.6414 82.5234 98.4051 82.332 98.1902 82.0156L96.2859 79.25C96.5047 79.1406 96.7039 79.0078 96.8836 78.8516C97.4422 78.3594 97.7215 77.7734 97.7215 77.0938C97.7215 76.4805 97.4734 75.9883 96.9773 75.6172C96.7391 75.4375 96.4461 75.2988 96.0984 75.2012C95.7508 75.1035 95.4246 75.0547 95.1199 75.0547C94.8191 75.0547 94.5711 75.0703 94.3758 75.1016C94.1844 75.1328 93.9832 75.1484 93.7723 75.1484C93.5613 75.1484 93.3582 75.1328 93.1629 75.1016C92.9715 75.0703 92.7684 75.0547 92.5535 75.0547C92.3387 75.0547 92.2312 75.127 92.2312 75.2715C92.2312 75.3848 92.3016 75.4414 92.4422 75.4414L92.7293 75.418C92.8504 75.418 92.948 75.4512 93.0223 75.5176C93.1004 75.5801 93.1668 75.7012 93.2215 75.8809C93.2762 76.0566 93.3035 76.4316 93.3035 77.0059V81.1426C93.3035 81.7168 93.2703 82.1152 93.2039 82.3379C93.1219 82.5996 92.9637 82.7305 92.7293 82.7305L92.4422 82.7012C92.3016 82.7012 92.2312 82.7578 92.2312 82.8711ZM94.9559 79.0801C94.7215 79.0801 94.4773 79.0664 94.2234 79.0391V75.8281C94.2234 75.6953 94.2703 75.6016 94.3641 75.5469C94.4578 75.4922 94.6043 75.4648 94.8035 75.4648C95.3621 75.4648 95.8191 75.6367 96.1746 75.9805C96.5535 76.3438 96.743 76.8379 96.743 77.4629C96.743 77.9824 96.5906 78.3926 96.2859 78.6934C96.0242 78.9512 95.7039 79.0801 95.325 79.0801H94.9559ZM103.806 83.041C103.982 83.0137 104.169 83 104.368 83L105.341 83.0879C105.595 83.0879 105.722 83.0156 105.722 82.8711C105.722 82.7578 105.652 82.7012 105.511 82.7012L105.159 82.7305C104.991 82.7305 104.876 82.6914 104.814 82.6133C104.755 82.5312 104.726 82.4062 104.726 82.2383C104.726 82.0664 104.779 81.832 104.884 81.5352C104.95 81.3516 105.023 81.1621 105.101 80.9668C105.183 80.7715 105.271 80.5566 105.364 80.3223H108.616L109.103 81.541C109.259 81.9277 109.337 82.2129 109.337 82.3965C109.337 82.4941 109.314 82.5762 109.267 82.6426C109.22 82.7051 109.122 82.7363 108.974 82.7363L108.622 82.6953C108.482 82.6953 108.411 82.7539 108.411 82.8711C108.411 83.0156 108.538 83.0879 108.792 83.0879L109.923 83C110.099 83 110.3 83.0156 110.527 83.0469C110.567 83.051 110.608 83.055 110.647 83.0591C110.684 83.0629 110.72 83.0666 110.755 83.0703C110.833 83.082 110.925 83.0879 111.03 83.0879C111.277 83.0879 111.4 83.0234 111.4 82.8945C111.4 82.7617 111.304 82.6953 111.113 82.6953C110.921 82.6953 110.777 82.6484 110.679 82.5547C110.616 82.4922 110.538 82.3809 110.445 82.2207C110.351 82.0605 110.136 81.5723 109.8 80.7559C109.691 80.4824 109.566 80.1758 109.425 79.8359C109.288 79.4961 109.146 79.1465 108.997 78.7871L108.564 77.6973C108.419 77.334 108.282 76.9941 108.154 76.6777C108.025 76.3613 107.909 76.0781 107.808 75.8281C107.71 75.5781 107.632 75.3809 107.573 75.2363C107.515 75.0879 107.456 74.9766 107.398 74.9023C107.37 74.875 107.345 74.8574 107.321 74.8496C107.298 74.8379 107.269 74.832 107.234 74.832C107.198 74.832 107.155 74.873 107.105 74.9551C107.085 74.9902 107.066 75.0293 107.046 75.0723C107.03 75.1152 106.943 75.3379 106.782 75.7402C106.622 76.1387 106.292 76.918 105.792 78.0781C105.601 78.5195 105.417 78.9375 105.241 79.332C105.07 79.7227 104.911 80.0781 104.767 80.3984C104.622 80.7148 104.493 80.9922 104.38 81.2305C104.271 81.4688 104.152 81.7246 104.023 81.998C103.894 82.2715 103.763 82.4688 103.63 82.5898C103.548 82.6602 103.411 82.6953 103.22 82.6953C103.036 82.6953 102.945 82.7617 102.945 82.8945C102.945 83.0234 103.044 83.0879 103.243 83.0879C103.446 83.0879 103.634 83.0723 103.806 83.041ZM105.575 79.8242C106.271 78.1797 106.753 77.0156 107.023 76.332L108.417 79.8242H105.575ZM115.345 82.8711C115.345 83.0156 115.453 83.0879 115.668 83.0879C115.785 83.0879 115.888 83.082 115.978 83.0703C116.068 83.0625 116.16 83.0527 116.254 83.041C116.347 83.0332 116.451 83.0234 116.564 83.0117C116.681 83.0039 116.826 83 116.998 83C117.173 83 117.349 83.0039 117.525 83.0117C117.701 83.0234 117.908 83.0352 118.146 83.0469C118.384 83.0586 118.597 83.0684 118.785 83.0762C118.972 83.0879 119.146 83.0957 119.306 83.0996C119.47 83.1074 119.627 83.1113 119.775 83.1113C119.923 83.1152 120.08 83.1172 120.244 83.1172C120.412 83.1172 120.543 83.0508 120.636 82.918C120.683 82.8477 120.724 82.7598 120.759 82.6543C120.798 82.5449 120.847 82.3906 120.906 82.1914C120.964 81.9883 121.009 81.8359 121.041 81.7344C121.068 81.6602 121.082 81.5996 121.082 81.5527C121.082 81.4395 121.043 81.3828 120.964 81.3828C120.886 81.3828 120.808 81.4531 120.73 81.5938C120.535 81.9375 120.261 82.1816 119.91 82.3262C119.722 82.4043 119.5 82.4629 119.242 82.502C118.988 82.541 118.687 82.5605 118.339 82.5605C117.996 82.5605 117.681 82.5215 117.396 82.4434C117.357 81.8809 117.338 81.1719 117.338 80.3164V77.0059C117.338 76.416 117.369 76.0176 117.431 75.8105C117.513 75.5488 117.673 75.418 117.912 75.418L118.193 75.4414C118.334 75.4414 118.404 75.3848 118.404 75.2715C118.404 75.127 118.296 75.0547 118.082 75.0547C117.871 75.0547 117.67 75.0703 117.478 75.1016C117.291 75.1328 117.091 75.1484 116.88 75.1484C116.673 75.1484 116.472 75.1328 116.277 75.1016C116.086 75.0703 115.882 75.0547 115.668 75.0547C115.453 75.0547 115.345 75.127 115.345 75.2715C115.345 75.3848 115.416 75.4414 115.556 75.4414L115.843 75.418C115.964 75.418 116.062 75.4512 116.136 75.5176C116.214 75.5801 116.281 75.7012 116.336 75.8809C116.39 76.0566 116.418 76.4316 116.418 77.0059V81.1426C116.418 81.7168 116.384 82.1152 116.318 82.3379C116.236 82.5996 116.078 82.7305 115.843 82.7305L115.556 82.7012C115.416 82.7012 115.345 82.7578 115.345 82.8711ZM125.379 82.8711C125.379 83.0156 125.506 83.0879 125.76 83.0879L126.768 83C127.021 83 127.432 83.0254 127.998 83.0762C128.303 83.1035 128.617 83.1172 128.941 83.1172C130.285 83.1172 131.371 82.7188 132.199 81.9219C133 81.1562 133.4 80.1973 133.4 79.0449C133.4 77.8301 132.992 76.8496 132.176 76.1035C131.793 75.752 131.334 75.4805 130.799 75.2891C130.268 75.0977 129.732 75.002 129.193 75.002C128.658 75.002 128.184 75.0312 127.77 75.0898C127.496 75.1289 127.152 75.1484 126.738 75.1484C126.582 75.1484 126.424 75.1328 126.264 75.1016C126.104 75.0703 125.916 75.0547 125.701 75.0547C125.486 75.0547 125.379 75.127 125.379 75.2715C125.379 75.3848 125.449 75.4414 125.59 75.4414L125.877 75.418C125.998 75.418 126.096 75.4512 126.17 75.5176C126.248 75.5801 126.314 75.7012 126.369 75.8809C126.424 76.0566 126.451 76.4316 126.451 77.0059V81.1426C126.451 81.7168 126.418 82.1152 126.352 82.3379C126.27 82.5996 126.111 82.7305 125.877 82.7305L125.59 82.7012C125.449 82.7012 125.379 82.7578 125.379 82.8711ZM127.424 82.2383C127.389 81.6406 127.371 80.9941 127.371 80.2988V76.5547C127.371 76.4219 127.373 76.2871 127.377 76.1504C127.381 76.0098 127.412 75.8848 127.471 75.7754C127.584 75.5723 128.025 75.4707 128.795 75.4707C129.873 75.4707 130.73 75.8086 131.367 76.4844C131.68 76.8125 131.922 77.2168 132.094 77.6973C132.27 78.1738 132.357 78.668 132.357 79.1797C132.357 79.6875 132.312 80.1016 132.223 80.4219C131.977 81.3281 131.451 81.957 130.646 82.3086C130.139 82.5312 129.648 82.6426 129.176 82.6426C128.527 82.6426 127.943 82.5078 127.424 82.2383ZM138.565 77.6562C138.592 77.6836 138.623 77.6973 138.659 77.6973C138.881 77.6152 139.088 77.4492 139.28 77.1992C139.385 77.0625 139.475 76.8965 139.549 76.7012C139.627 76.5059 139.666 76.2734 139.666 76.0039C139.666 75.7344 139.604 75.4961 139.479 75.2891C139.42 75.1953 139.35 75.1211 139.268 75.0664C139.19 75.0117 139.084 74.9844 138.952 74.9844C138.823 74.9844 138.707 75.0391 138.606 75.1484C138.563 75.1953 138.532 75.2461 138.512 75.3008C138.493 75.3516 138.483 75.4141 138.483 75.4883C138.483 75.5625 138.512 75.6289 138.571 75.6875C138.6 75.7131 138.63 75.7399 138.661 75.768C138.696 75.8 138.732 75.8338 138.77 75.8691C138.844 75.9355 138.911 76.0195 138.969 76.1211C139.032 76.2227 139.063 76.3535 139.063 76.5137C139.063 76.6699 139.014 76.8359 138.916 77.0117C138.873 77.082 138.829 77.1445 138.782 77.1992C138.739 77.2539 138.684 77.3086 138.618 77.3633C138.555 77.4141 138.524 77.4785 138.524 77.5566C138.524 77.5918 138.538 77.625 138.565 77.6562ZM149.108 75.2012L148.862 75.2363C148.78 75.2363 148.602 75.1914 148.329 75.1016C148.134 75.0352 147.874 75.002 147.55 75.002C146.839 75.002 146.259 75.1934 145.809 75.5762C145.606 75.752 145.45 75.957 145.341 76.1914C145.231 76.4258 145.177 76.6543 145.177 76.877C145.177 77.0996 145.2 77.2969 145.247 77.4688C145.427 78.1211 146.011 78.7773 146.999 79.4375C147.116 79.5156 147.241 79.5977 147.374 79.6836C147.511 79.7695 147.714 79.9043 147.983 80.0879C148.257 80.2676 148.489 80.4805 148.68 80.7266C148.876 80.9688 148.973 81.2422 148.973 81.5469C148.973 81.8477 148.845 82.1035 148.587 82.3145C148.45 82.4238 148.276 82.5117 148.065 82.5781C147.858 82.6406 147.645 82.6719 147.427 82.6719C147.212 82.6719 147.04 82.6523 146.911 82.6133C146.473 82.4805 146.089 82.1953 145.757 81.7578C145.671 81.6445 145.573 81.3965 145.464 81.0137C145.401 80.7988 145.3 80.6914 145.159 80.6914C145.054 80.6914 145.001 80.7617 145.001 80.9023C145.001 80.9609 145.012 81.0352 145.036 81.125L145.118 81.4297C145.149 81.5469 145.182 81.6797 145.218 81.8281C145.257 81.9766 145.29 82.1426 145.317 82.3262C145.345 82.5098 145.376 82.6348 145.411 82.7012C145.442 82.7559 145.52 82.8047 145.645 82.8477C146.192 83.0469 146.692 83.1465 147.145 83.1465C148.04 83.1465 148.716 82.9336 149.173 82.5078C149.384 82.3164 149.536 82.0938 149.63 81.8398C149.723 81.582 149.77 81.2891 149.77 80.9609C149.77 80.6328 149.659 80.2949 149.436 79.9473C149.319 79.7637 149.167 79.5801 148.979 79.3965C148.792 79.209 148.53 79 148.194 78.7695C147.858 78.5391 147.544 78.3262 147.251 78.1309C146.958 77.9355 146.716 77.7539 146.524 77.5859C146.337 77.4141 146.196 77.2441 146.102 77.0762C146.012 76.9082 145.968 76.7285 145.968 76.5371C145.968 76.3457 146.005 76.1836 146.079 76.0508C146.313 75.6406 146.774 75.4355 147.462 75.4355C147.954 75.4355 148.327 75.5488 148.581 75.7754C148.69 75.8809 148.827 76.1152 148.991 76.4785C149.077 76.6699 149.165 76.7656 149.255 76.7656C149.305 76.7656 149.352 76.748 149.395 76.7129C149.442 76.6738 149.466 76.6348 149.466 76.5957C149.466 76.5527 149.458 76.5 149.442 76.4375C149.43 76.375 149.415 76.2988 149.395 76.209C149.376 76.1191 149.356 76.0176 149.337 75.9043C149.317 75.791 149.302 75.6465 149.29 75.4707C149.278 75.291 149.218 75.2012 149.108 75.2012ZM160.966 82.8711C160.966 83.0156 161.074 83.0879 161.289 83.0879C161.406 83.0879 161.509 83.082 161.599 83.0703C161.689 83.0625 161.781 83.0527 161.875 83.041C161.968 83.0332 162.072 83.0234 162.185 83.0117C162.302 83.0039 162.447 83 162.619 83C162.795 83 162.97 83.0039 163.146 83.0117C163.322 83.0234 163.529 83.0352 163.767 83.0469C164.005 83.0586 164.218 83.0684 164.406 83.0762C164.593 83.0879 164.767 83.0957 164.927 83.0996C165.091 83.1074 165.248 83.1113 165.396 83.1113C165.545 83.1152 165.701 83.1172 165.865 83.1172C166.033 83.1172 166.164 83.0508 166.257 82.918C166.304 82.8477 166.345 82.7598 166.38 82.6543C166.42 82.5449 166.468 82.3906 166.527 82.1914C166.586 81.9883 166.63 81.8359 166.662 81.7344C166.689 81.6602 166.703 81.5996 166.703 81.5527C166.703 81.4395 166.664 81.3828 166.586 81.3828C166.507 81.3828 166.429 81.4531 166.351 81.5938C166.156 81.9375 165.882 82.1816 165.531 82.3262C165.343 82.4043 165.121 82.4629 164.863 82.502C164.609 82.541 164.308 82.5605 163.961 82.5605C163.617 82.5605 163.302 82.5215 163.017 82.4434C162.978 81.8809 162.959 81.1719 162.959 80.3164V77.0059C162.959 76.416 162.99 76.0176 163.052 75.8105C163.134 75.5488 163.295 75.418 163.533 75.418L163.814 75.4414C163.955 75.4414 164.025 75.3848 164.025 75.2715C164.025 75.127 163.918 75.0547 163.703 75.0547C163.492 75.0547 163.291 75.0703 163.099 75.1016C162.912 75.1328 162.712 75.1484 162.502 75.1484C162.295 75.1484 162.093 75.1328 161.898 75.1016C161.707 75.0703 161.504 75.0547 161.289 75.0547C161.074 75.0547 160.966 75.127 160.966 75.2715C160.966 75.3848 161.037 75.4414 161.177 75.4414L161.464 75.418C161.586 75.418 161.683 75.4512 161.757 75.5176C161.836 75.5801 161.902 75.7012 161.957 75.8809C162.011 76.0566 162.039 76.4316 162.039 77.0059V81.1426C162.039 81.7168 162.005 82.1152 161.939 82.3379C161.857 82.5996 161.699 82.7305 161.464 82.7305L161.177 82.7012C161.037 82.7012 160.966 82.7578 160.966 82.8711ZM171.346 83.041C171.521 83.0137 171.709 83 171.908 83L172.881 83.0879C173.135 83.0879 173.262 83.0156 173.262 82.8711C173.262 82.7578 173.191 82.7012 173.051 82.7012L172.699 82.7305C172.531 82.7305 172.416 82.6914 172.354 82.6133C172.295 82.5312 172.266 82.4062 172.266 82.2383C172.266 82.0664 172.318 81.832 172.424 81.5352C172.49 81.3516 172.562 81.1621 172.641 80.9668C172.723 80.7715 172.811 80.5566 172.904 80.3223H176.156L176.643 81.541C176.799 81.9277 176.877 82.2129 176.877 82.3965C176.877 82.4941 176.854 82.5762 176.807 82.6426C176.76 82.7051 176.662 82.7363 176.514 82.7363L176.162 82.6953C176.021 82.6953 175.951 82.7539 175.951 82.8711C175.951 83.0156 176.078 83.0879 176.332 83.0879L177.463 83C177.639 83 177.84 83.0156 178.066 83.0469C178.145 83.0547 178.221 83.0625 178.295 83.0703C178.373 83.082 178.465 83.0879 178.57 83.0879C178.816 83.0879 178.939 83.0234 178.939 82.8945C178.939 82.7617 178.844 82.6953 178.652 82.6953C178.461 82.6953 178.316 82.6484 178.219 82.5547C178.156 82.4922 178.078 82.3809 177.984 82.2207C177.891 82.0605 177.676 81.5723 177.34 80.7559C177.23 80.4824 177.105 80.1758 176.965 79.8359C176.828 79.4961 176.686 79.1465 176.537 78.7871L176.104 77.6973C175.959 77.334 175.822 76.9941 175.693 76.6777C175.564 76.3613 175.449 76.0781 175.348 75.8281C175.25 75.5781 175.172 75.3809 175.113 75.2363C175.055 75.0879 174.996 74.9766 174.938 74.9023C174.91 74.875 174.885 74.8574 174.861 74.8496C174.838 74.8379 174.809 74.832 174.773 74.832C174.738 74.832 174.695 74.873 174.645 74.9551C174.625 74.9902 174.605 75.0293 174.586 75.0723C174.57 75.1152 174.482 75.3379 174.322 75.7402C174.162 76.1387 173.832 76.918 173.332 78.0781C173.141 78.5195 172.957 78.9375 172.781 79.332C172.609 79.7227 172.451 80.0781 172.307 80.3984C172.162 80.7148 172.033 80.9922 171.92 81.2305C171.811 81.4688 171.691 81.7246 171.562 81.998C171.434 82.2715 171.303 82.4688 171.17 82.5898C171.088 82.6602 170.951 82.6953 170.76 82.6953C170.576 82.6953 170.484 82.7617 170.484 82.8945C170.484 83.0234 170.584 83.0879 170.783 83.0879C170.986 83.0879 171.174 83.0723 171.346 83.041ZM173.115 79.8242C173.811 78.1797 174.293 77.0156 174.562 76.332L175.957 79.8242H173.115ZM182.961 82.8711C182.961 83.0156 183.088 83.0879 183.342 83.0879C183.467 83.0879 183.7 83.0625 184.039 83.0117C184.383 82.9609 184.799 82.9746 185.288 83.0527C185.432 83.0762 185.569 83.0879 185.698 83.0879C185.948 83.0879 186.073 83.0156 186.073 82.8711C186.073 82.7578 186.002 82.7012 185.862 82.7012L185.58 82.7305C185.479 82.7305 185.389 82.709 185.311 82.666C185.233 82.623 185.155 82.5156 185.077 82.3438C185.002 82.1719 184.965 81.7715 184.965 81.1426L184.936 77.0059C184.936 76.377 184.981 75.9492 185.071 75.7227C185.153 75.5195 185.299 75.418 185.51 75.418L185.791 75.4414C185.932 75.4414 186.002 75.3848 186.002 75.2715C186.002 75.127 185.895 75.0547 185.68 75.0547C185.469 75.0547 185.268 75.0703 185.077 75.1016C184.885 75.1328 184.684 75.1484 184.473 75.1484C184.262 75.1484 184.059 75.1328 183.864 75.1016C183.672 75.0703 183.469 75.0547 183.254 75.0547C183.039 75.0547 182.932 75.127 182.932 75.2715C182.932 75.3848 183.002 75.4414 183.143 75.4414L183.43 75.418C183.532 75.418 183.618 75.4395 183.688 75.4824C183.762 75.5215 183.832 75.625 183.899 75.793C183.969 75.957 184.004 76.3613 184.004 77.0059L184.034 81.1426C184.034 81.7715 183.989 82.1992 183.899 82.4258C183.817 82.6289 183.67 82.7305 183.459 82.7305L183.172 82.7012C183.032 82.7012 182.961 82.7578 182.961 82.8711ZM190.458 82.8711C190.458 83.0156 190.585 83.0879 190.839 83.0879C190.964 83.0879 191.192 83.0625 191.524 83.0117C191.86 82.9648 192.262 82.9785 192.731 83.0527C192.876 83.0762 193.012 83.0879 193.141 83.0879C193.391 83.0879 193.516 83.0156 193.516 82.8711C193.516 82.7578 193.446 82.7012 193.305 82.7012L193.024 82.7305C192.899 82.7305 192.798 82.6992 192.72 82.6367C192.645 82.5703 192.581 82.4531 192.526 82.2852C192.475 82.1133 192.45 81.7324 192.45 81.1426V79.5547C192.637 79.543 192.856 79.5371 193.106 79.5371C193.36 79.5371 193.548 79.582 193.669 79.6719C193.79 79.7578 193.917 79.9043 194.05 80.1113L195.526 82.4727C195.745 82.8242 195.989 83 196.259 83H197.384C197.598 83 197.706 82.9453 197.706 82.8359C197.706 82.7227 197.606 82.6562 197.407 82.6367C197.294 82.625 197.2 82.6094 197.126 82.5898C196.868 82.5234 196.632 82.332 196.417 82.0156L194.512 79.25C194.731 79.1406 194.93 79.0078 195.11 78.8516C195.669 78.3594 195.948 77.7734 195.948 77.0938C195.948 76.4805 195.7 75.9883 195.204 75.6172C194.966 75.4375 194.673 75.2988 194.325 75.2012C193.977 75.1035 193.651 75.0547 193.346 75.0547C193.046 75.0547 192.798 75.0703 192.602 75.1016C192.411 75.1328 192.21 75.1484 191.999 75.1484C191.788 75.1484 191.585 75.1328 191.389 75.1016C191.198 75.0703 190.995 75.0547 190.78 75.0547C190.565 75.0547 190.458 75.127 190.458 75.2715C190.458 75.3848 190.528 75.4414 190.669 75.4414L190.956 75.418C191.077 75.418 191.175 75.4512 191.249 75.5176C191.327 75.5801 191.393 75.7012 191.448 75.8809C191.503 76.0566 191.53 76.4316 191.53 77.0059V81.1426C191.53 81.7168 191.497 82.1152 191.43 82.3379C191.348 82.5996 191.19 82.7305 190.956 82.7305L190.669 82.7012C190.528 82.7012 190.458 82.7578 190.458 82.8711ZM193.182 79.0801C192.948 79.0801 192.704 79.0664 192.45 79.0391V75.8281C192.45 75.6953 192.497 75.6016 192.591 75.5469C192.684 75.4922 192.831 75.4648 193.03 75.4648C193.589 75.4648 194.046 75.6367 194.401 75.9805C194.78 76.3438 194.97 76.8379 194.97 77.4629C194.97 77.9824 194.817 78.3926 194.512 78.6934C194.251 78.9512 193.93 79.0801 193.552 79.0801H193.182Z" fill="#0C0606"/>
</svg>
