<svg width="69" height="69" viewBox="0 0 69 69" fill="none" xmlns="http://www.w3.org/2000/svg">
<g clip-path="url(#clip0)">
<path d="M33.8268 44.8405C40.0813 45.2357 45.2372 40.0781 44.84 33.8232C44.5125 28.6662 40.326 24.4829 35.1686 24.1592C28.9161 23.7668 23.7644 28.9211 24.1595 35.1732C24.4856 40.3301 28.6698 44.5146 33.8268 44.8405Z" fill="white"/>
<path d="M36.3827 0.0506623C32.5218 -0.157012 28.7945 0.279899 25.2886 1.24886C24.7963 1.38498 24.4512 1.82687 24.4512 2.33764V18.2675C24.4512 18.8263 25.0525 19.1806 25.5392 18.9059C28.5392 17.2119 32.0722 16.3491 35.8261 16.6497C44.793 17.3679 51.9089 24.7488 52.3147 33.7353C52.7923 44.3076 44.1337 52.9835 33.5632 52.5299C24.1043 52.124 16.3774 43.8033 16.3774 34.3357C16.3774 33.7024 16.3774 6.00703 16.3774 6.33883C16.3774 5.81904 15.7965 5.50719 15.3643 5.79586C5.99706 12.0518 -0.136258 22.7664 0.00457239 34.909C0.217233 53.2478 14.9454 68.3434 33.2744 68.9787C53.18 69.6687 69.4797 53.4873 68.9883 33.6251C68.545 15.7122 54.2751 1.01302 36.3827 0.0506623Z" fill="white"/>
<path d="M33.8268 44.8405C40.0813 45.2357 45.2372 40.0781 44.84 33.8232C44.5125 28.6662 40.326 24.4829 35.1686 24.1592C28.9161 23.7668 23.7644 28.9211 24.1595 35.1732C24.4856 40.3301 28.6698 44.5146 33.8268 44.8405Z" fill="white"/>
<path d="M26.9364 35.1733C26.5856 29.6254 30.6031 24.9423 35.8814 24.232C35.6459 24.2004 35.4087 24.1743 35.1687 24.1592C28.9161 23.7668 23.7642 28.9212 24.1595 35.1732C24.4855 40.33 28.6697 44.5145 33.8268 44.8405C34.5324 44.8851 35.2239 44.8584 35.895 44.768C31.0685 44.1226 27.2473 40.0917 26.9364 35.1733Z" fill="white"/>
<path d="M35.7437 52.4922C35.9415 52.5077 36.1399 52.5212 36.3393 52.5297C46.9097 52.9833 55.5685 44.3075 55.0908 33.7352C54.6847 24.7487 47.5691 17.3676 38.6022 16.6496C37.6339 16.5721 36.6809 16.5733 35.7474 16.6449C35.7734 16.6469 35.7993 16.6475 35.8253 16.6496C44.7922 17.3677 51.9081 24.7486 52.3139 33.7352C52.7581 43.5699 45.296 51.7622 35.7437 52.4922Z" fill="white"/>
<path d="M25.5383 18.9058C26.0841 18.5976 26.6481 18.3177 27.227 18.0666V0.773193C26.5736 0.913754 25.9268 1.07237 25.2878 1.24905C24.7953 1.38516 24.4502 1.82706 24.4502 2.33782V18.2677C24.4502 18.8264 25.0517 19.1806 25.5383 18.9058Z" fill="white"/>
<path d="M2.78069 34.9093C2.64888 23.5466 8.01134 13.4346 16.3766 7.05603C16.3766 6.61494 16.3766 6.36226 16.3766 6.33881C16.3766 5.81902 15.7958 5.50717 15.3636 5.79584C5.99633 12.0521 -0.13699 22.7666 0.00383997 34.9093C0.2165 53.248 14.9446 68.3437 33.2737 68.979C34.1518 69.0094 35.0223 69.0052 35.8852 68.9711C17.6332 68.2508 2.99267 53.1926 2.78069 34.9093Z" fill="white"/>
</g>
<defs>
<clipPath id="clip0">
<rect width="69" height="69" fill="white"/>
</clipPath>
</defs>
</svg>
