<svg width="25" height="25" viewBox="0 0 25 25" fill="none" xmlns="http://www.w3.org/2000/svg">
<path d="M23.6702 0H1.32979C0.595479 0 0 0.595479 0 1.32979V23.6702C0 24.4045 0.595479 25 1.32979 25H23.6702C24.4048 25 25 24.4045 25 23.6702V1.32979C25 0.595479 24.4048 0 23.6702 0ZM8.26808 22.7535C4.39761 22.7535 2.53112 20.909 2.53112 18.9287C2.53112 17.9668 3.01064 16.6037 4.58537 15.667C6.23936 14.6505 8.48218 14.5176 9.68378 14.4348C9.30851 13.9535 8.88298 13.446 8.88298 12.6173C8.88298 12.163 9.01649 11.8957 9.14867 11.5742C8.85479 11.6016 8.5625 11.6279 8.29548 11.6279C5.46729 11.6279 3.86622 9.51356 3.86622 7.42793C3.86622 6.1992 4.4258 4.83431 5.57314 3.84468C7.09548 2.58777 9.17447 2.24681 10.6173 2.24681H15.8755L14.1402 3.33697H12.4867C13.1003 3.84468 14.3795 4.91436 14.3795 6.94814C14.3795 8.9258 13.2601 9.8641 12.1399 10.746C11.7926 11.0928 11.3918 11.4673 11.3918 12.0569C11.3918 12.6439 11.7928 12.9646 12.0854 13.2072L13.0473 13.9543C14.2213 14.9436 15.2888 15.8527 15.2888 17.6997C15.2878 20.2141 12.858 22.7535 8.26808 22.7535ZM22.4686 12.1729H19.7859V14.8636H18.4654V12.1729H15.7955V10.8378H18.4654V8.16356H19.7859V10.8378H22.4689V12.1729H22.4686Z" fill="#242323"/>
<path d="M12.0319 8.17785C12.0319 6.25152 10.8837 3.25684 8.67018 3.25684C7.97444 3.25684 7.22869 3.60444 6.80077 4.13981C6.34678 4.70205 6.2146 5.422 6.2146 6.11934C6.2146 7.91029 7.25476 10.8784 9.55077 10.8784C10.2175 10.8784 10.9356 10.5592 11.3649 10.1308C11.9787 9.51348 12.0319 8.6595 12.0319 8.17785Z" fill="#242323"/>
<path d="M10.5905 15.2115C10.3777 15.1843 10.2442 15.1843 9.97742 15.1843C9.737 15.1843 8.29551 15.2367 7.17503 15.6138C6.5878 15.8263 4.88062 16.4686 4.88062 18.3676C4.88062 20.2668 6.72157 21.6325 9.57689 21.6325C12.1394 21.6325 13.5011 20.3992 13.5011 18.7436C13.5011 17.3761 12.62 16.6561 10.5905 15.2115Z" fill="#242323"/>
</svg>
