<svg width="61" height="62" viewBox="0 0 61 62" fill="none" xmlns="http://www.w3.org/2000/svg">
<path d="M7.11667 53.7333C3.19335 53.7333 0 56.979 0 60.9666C0 61.5381 0.45445 62 1.01667 62H13.2167C13.7789 62 14.2333 61.5381 14.2333 60.9666C14.2333 56.979 11.04 53.7333 7.11667 53.7333ZM2.13602 59.9333C2.54065 57.9131 4.11242 56.3259 6.1 55.9136V57.8666H8.13333V55.9136C10.1209 56.3269 11.6927 57.9131 12.0973 59.9333H2.13602Z" fill="black"/>
<path d="M59.9833 44.4333H58.2001C58.1442 44.2897 58.0862 44.1471 58.0232 44.0035L59.2849 42.7211C59.6824 42.3171 59.6824 41.664 59.2849 41.26L54.9722 36.8766C54.7617 36.6627 54.4842 36.5697 54.2087 36.5831C55.8201 35.7141 56.9333 34.0122 56.9333 32.0333V5.16667C56.9333 2.31777 54.653 0 51.85 0H5.08333C2.28038 0 0 2.31777 0 5.16667V32.0333C0 34.8822 2.28038 37.2 5.08333 37.2H18.3508L14.5099 44.4333H14.2333H12.7083C10.7462 44.4333 9.15 46.0557 9.15 48.05C9.15 50.0443 10.7462 51.6667 12.7083 51.6667H34.5667C34.5667 52.2381 35.0211 52.7 35.5833 52.7H37.3666C37.4225 52.8436 37.4804 52.9862 37.5435 53.1299L36.2818 54.4122C35.8843 54.8163 35.8843 55.4693 36.2818 55.8734L40.5945 60.2568C40.992 60.6608 41.6345 60.6608 42.032 60.2568L43.2937 58.9744C43.435 59.0385 43.5753 59.0974 43.7167 59.1542V60.9667C43.7167 61.5381 44.1711 62 44.7333 62H50.8333C51.3955 62 51.85 61.5381 51.85 60.9667V59.1542C51.9913 59.0974 52.1316 59.0385 52.2729 58.9744L53.5346 60.2568C53.9321 60.6608 54.5747 60.6608 54.9722 60.2568L59.2849 55.8734C59.6824 55.4693 59.6824 54.8163 59.2849 54.4122L58.0232 53.1299C58.0862 52.9862 58.1442 52.8436 58.2001 52.7H59.9833C60.5455 52.7 61 52.2381 61 51.6667V45.4667C61 44.8952 60.5455 44.4333 59.9833 44.4333ZM2.03333 5.16667C2.03333 3.45753 3.40177 2.06667 5.08333 2.06667H51.85C53.5316 2.06667 54.9 3.45753 54.9 5.16667V26.8667H2.03333V5.16667ZM5.08333 35.1333C3.40177 35.1333 2.03333 33.7425 2.03333 32.0333V28.9333H54.9V32.0333C54.9 33.7425 53.5316 35.1333 51.85 35.1333H50.8333H44.7333H36.8786H20.0548H5.08333ZM53.5214 36.89L52.2729 38.1589C52.1316 38.0949 51.9913 38.036 51.85 37.9791V37.2C52.4386 37.2 52.9948 37.0781 53.5214 36.89ZM43.7167 37.2V37.9791C43.5753 38.036 43.435 38.0949 43.2937 38.1589L42.3503 37.2H43.7167ZM40.2752 37.2L39.3989 38.0907L38.8021 37.2H40.2752ZM34.5667 49.6H12.7083C11.8675 49.6 11.1833 48.9046 11.1833 48.05C11.1833 47.1954 11.8675 46.5 12.7083 46.5H14.2333H15.1158H34.5667V49.6ZM16.8202 44.4323L20.6607 37.2H36.3418L37.9359 39.5777L36.2818 41.2589C35.8843 41.663 35.8843 42.316 36.2818 42.7201L37.5435 44.0024C37.4804 44.1461 37.4225 44.2887 37.3666 44.4323H35.5833H16.8202ZM58.9667 50.6333H57.4833C57.0391 50.6333 56.6477 50.9258 56.5135 51.3556C56.3589 51.8547 56.1505 52.3631 55.8933 52.8633C55.6879 53.2642 55.7621 53.753 56.0763 54.0723L57.1296 55.1428L54.2544 58.0651L53.2011 56.9945C52.886 56.6752 52.4061 56.6008 52.0117 56.8085C51.5196 57.07 51.0194 57.2818 50.5283 57.4389C50.1044 57.5763 49.8167 57.9741 49.8167 58.4257V59.9333H45.75V58.4257C45.75 57.9741 45.4623 57.5763 45.0393 57.4399C44.5483 57.2828 44.0481 57.071 43.556 56.8096C43.1616 56.6019 42.6807 56.6763 42.3665 56.9956L41.3133 58.0661L38.4381 55.1438L39.4914 54.0733C39.8055 53.754 39.8798 53.2652 39.6744 52.8643C39.4172 52.3642 39.2088 51.8558 39.0542 51.3567C38.919 50.9258 38.5276 50.6333 38.0833 50.6333H36.6V46.5H38.0833C38.5276 46.5 38.919 46.2076 39.0532 45.7777C39.2077 45.2786 39.4162 44.7702 39.6734 44.2701C39.8787 43.8691 39.8045 43.3804 39.4904 43.0611L38.4371 41.9905L41.3122 39.0683L42.3655 40.1388C42.6797 40.4591 43.1605 40.5335 43.555 40.3248C44.0471 40.0634 44.5473 39.8515 45.0383 39.6945C45.4623 39.557 45.75 39.1592 45.75 38.7076V37.2H49.8167V38.7076C49.8167 39.1592 50.1044 39.557 50.5273 39.6934C51.0184 39.8505 51.5186 40.0623 52.0106 40.3238C52.4051 40.5325 52.885 40.4581 53.2001 40.1378L54.2534 39.0672L57.1285 41.9895L56.0753 43.06C55.7611 43.3793 55.6869 43.8681 55.8923 44.269C56.1495 44.7692 56.3579 45.2776 56.5124 45.7767C56.6476 46.2076 57.0391 46.5 57.4833 46.5H58.9667V50.6333Z" fill="black"/>
<path d="M47.7833 42.3667C44.4192 42.3667 41.6833 45.1474 41.6833 48.5667C41.6833 51.986 44.4192 54.7667 47.7833 54.7667C51.1475 54.7667 53.8833 51.986 53.8833 48.5667C53.8833 45.1474 51.1475 42.3667 47.7833 42.3667ZM47.7833 52.7C45.5406 52.7 43.7167 50.8462 43.7167 48.5667C43.7167 46.2872 45.5406 44.4334 47.7833 44.4334C50.0261 44.4334 51.85 46.2872 51.85 48.5667C51.85 50.8462 50.0261 52.7 47.7833 52.7Z" fill="black"/>
<path d="M20.0355 7.96382L18.5979 6.50269L11.4812 13.736C11.0837 14.1401 11.0837 14.7931 11.4812 15.1972L18.5979 22.4305L20.0355 20.9694L13.6376 14.4666L20.0355 7.96382Z" fill="black"/>
<path d="M42.4021 13.736L35.2855 6.50269L33.8479 7.96382L40.2458 14.4666L33.8479 20.9694L35.2855 22.4305L42.4021 15.1972C42.7997 14.7931 42.7997 14.1401 42.4021 13.736Z" fill="black"/>
<path d="M30.6036 3.67701L21.4563 22.2716L23.2749 23.1958L32.4223 4.60122L30.6036 3.67701Z" fill="black"/>
<path d="M41.6832 20.6666H39.6499V22.7333H41.6832V20.6666Z" fill="black"/>
<path d="M45.7501 20.6666H43.7168V22.7333H45.7501V20.6666Z" fill="black"/>
<path d="M49.8165 20.6666H47.7832V22.7333H49.8165V20.6666Z" fill="black"/>
</svg>
