<svg width="25" height="25" viewBox="0 0 25 25" fill="none" xmlns="http://www.w3.org/2000/svg">
<path d="M17.2201 8.55181H19.5555C20.0669 8.55181 20.4853 8.13319 20.4853 7.62149V5.39516C20.4853 4.88319 20.0669 4.46484 19.5555 4.46484H17.2201C16.7084 4.46484 16.29 4.88319 16.29 5.39516V7.62149C16.29 8.13319 16.7084 8.55181 17.2201 8.55181Z" fill="black"/>
<path d="M12.5196 16.4757C14.8113 16.4757 16.6691 14.6756 16.6691 12.4552C16.6691 10.2347 14.8113 8.43469 12.5196 8.43469C10.2279 8.43469 8.37012 10.2347 8.37012 12.4552C8.37012 14.6756 10.2279 16.4757 12.5196 16.4757Z" fill="black"/>
<path d="M23.6702 0H1.32979C0.595479 0 0 0.595479 0 1.32979V23.6702C0 24.4045 0.595479 25 1.32979 25H23.6702C24.4048 25 25 24.4045 25 23.6702V1.32979C25 0.595479 24.4048 0 23.6702 0ZM22.8306 20.1787C22.8306 21.7508 21.6372 22.8306 20.1787 22.8306H4.82128C3.36277 22.8306 2.16941 21.7508 2.16941 20.1787V4.82128C2.16941 3.2492 3.3625 2.16941 4.82128 2.16941H20.1787C21.637 2.16941 22.8306 3.2492 22.8306 4.82128V20.1787Z" fill="black"/>
<path d="M18.9417 12.68C18.9417 16.1167 16.0662 18.9023 12.5199 18.9023C8.97307 18.9023 6.0978 16.1164 6.0978 12.68C6.0978 12.064 6.19089 11.4691 6.36296 10.9071H4.46509V19.6345C4.46509 20.0861 4.83503 20.4558 5.28663 20.4558H19.6747C20.126 20.4558 20.4959 20.0861 20.4959 19.6345V10.9071H18.6773C18.8486 11.4691 18.9417 12.0638 18.9417 12.68Z" fill="black"/>
</svg>
