<svg width="43" height="46" viewBox="0 0 43 46" fill="none" xmlns="http://www.w3.org/2000/svg">
<path d="M0.796296 6.44H3.18519V10.12C3.18519 10.6288 3.54113 11.04 3.98148 11.04H13.537C13.9774 11.04 14.3333 10.6288 14.3333 10.12V6.44H42.2037C42.6441 6.44 43 6.02876 43 5.52C43 5.01124 42.6441 4.6 42.2037 4.6H14.3333V0.92C14.3333 0.41124 13.9774 0 13.537 0H3.98148C3.54113 0 3.18519 0.41124 3.18519 0.92V4.6H0.796296C0.355944 4.6 0 5.01124 0 5.52C0 6.02876 0.355944 6.44 0.796296 6.44ZM4.77778 1.84H12.7407V9.2H4.77778V1.84Z" fill="black"/>
<path d="M42.2037 22.08H27.0741V18.4C27.0741 17.8912 26.7181 17.48 26.2778 17.48H16.7222C16.2819 17.48 15.9259 17.8912 15.9259 18.4V22.08H0.796296C0.355944 22.08 0 22.4912 0 23C0 23.5087 0.355944 23.92 0.796296 23.92H15.9259V27.6C15.9259 28.1087 16.2819 28.52 16.7222 28.52H26.2778C26.7181 28.52 27.0741 28.1087 27.0741 27.6V23.92H42.2037C42.6441 23.92 43 23.5087 43 23C43 22.4912 42.6441 22.08 42.2037 22.08ZM25.4815 26.68H17.5185V19.32H25.4815V26.68Z" fill="black"/>
<path d="M42.2037 39.56H39.8148V35.88C39.8148 35.3712 39.4589 34.96 39.0185 34.96H29.463C29.0226 34.96 28.6667 35.3712 28.6667 35.88V39.56H0.796296C0.355944 39.56 0 39.9712 0 40.48C0 40.9887 0.355944 41.4 0.796296 41.4H28.6667V45.08C28.6667 45.5887 29.0226 46 29.463 46H39.0185C39.4589 46 39.8148 45.5887 39.8148 45.08V41.4H42.2037C42.6441 41.4 43 40.9887 43 40.48C43 39.9712 42.6441 39.56 42.2037 39.56ZM38.2222 44.16H30.2593V36.8H38.2222V44.16Z" fill="black"/>
</svg>
