<svg width="50" height="50" viewBox="0 0 50 50" fill="none" xmlns="http://www.w3.org/2000/svg">
<path d="M0 35.3448V48.2759C0 49.1457 1.35556 50 2.73667 50H47.2633C48.6444 50 50 49.1457 50 48.2759V35.3448H0ZM22.8011 44.4535C22.8011 44.8621 22.7044 45.2061 22.5122 45.4845C22.3189 45.763 22.0611 45.9871 21.7378 46.1561C21.4133 46.325 21.0411 46.4431 20.6211 46.5095C20.2011 46.5759 19.7667 46.6095 19.3222 46.6095C19.0989 46.6095 18.8378 46.5914 18.54 46.5561C18.2422 46.5207 17.9322 46.4664 17.6133 46.3914C17.2944 46.3164 16.9878 46.2319 16.6944 46.138C16.4 46.044 16.1522 45.938 15.95 45.8198L16.7244 44.8655C16.8256 44.9198 16.97 44.9776 17.1578 45.0362C17.3456 45.0948 17.55 45.15 17.7733 45.2009C17.9956 45.2526 18.2289 45.2966 18.4722 45.3362C18.7156 45.3759 18.9433 45.3948 19.1556 45.3948C19.6911 45.3948 20.12 45.3138 20.4389 45.1535C20.7578 44.9931 20.9267 44.719 20.9478 44.3345V37.6871H22.8011V44.4535ZM31.62 45.0845C31.4533 45.3793 31.2178 45.6388 30.9133 45.8621C30.6089 46.0854 30.2344 46.2647 29.7889 46.3983C29.3433 46.5319 28.8367 46.5983 28.27 46.5983C28.0267 46.5983 27.7767 46.588 27.5178 46.569C27.2589 46.55 26.9978 46.5155 26.7356 46.469C26.4722 46.4216 26.2211 46.3569 25.9833 46.2742C25.7456 46.1914 25.54 46.0914 25.3678 45.9733L25.6867 44.9595C25.8278 45.0224 26.0078 45.0836 26.2256 45.1423C26.4433 45.2009 26.6678 45.2561 26.9011 45.3069C27.1333 45.3586 27.3667 45.3992 27.6 45.4311C27.8322 45.4621 28.05 45.4785 28.2533 45.4785C28.8711 45.4785 29.3444 45.3664 29.6733 45.1423C30.0022 44.9181 30.1667 44.5862 30.1667 44.1466C30.1667 43.8793 30.05 43.6517 29.8178 43.463C29.5844 43.2742 29.2933 43.1035 28.9444 42.95C28.5956 42.7966 28.2178 42.644 27.8122 42.4905C27.4067 42.3371 27.0267 42.1561 26.6733 41.9483C26.3189 41.7405 26.0244 41.4948 25.7922 41.2121C25.5589 40.9293 25.4433 40.5759 25.4433 40.1517C25.4433 39.7673 25.5344 39.425 25.7167 39.1267C25.8989 38.8285 26.1444 38.5742 26.4533 38.3664C26.7622 38.1586 27.1222 37.9992 27.5322 37.8888C27.9422 37.7785 28.3756 37.7242 28.8311 37.7242C29.2967 37.7242 29.7678 37.7578 30.2433 37.8242C30.7189 37.8905 31.1033 37.9992 31.3978 38.1483C31.3367 38.25 31.2656 38.3621 31.1856 38.4845C31.1044 38.6069 31.0278 38.7198 30.9578 38.8259C30.8867 38.9319 30.8256 39.0207 30.7756 39.0914C30.7244 39.1621 30.6944 39.2017 30.6844 39.2095C30.6233 39.1862 30.5556 39.1552 30.4789 39.1155C30.4022 39.0759 30.2933 39.0371 30.1522 38.9974C30.01 38.9578 29.8222 38.9311 29.59 38.9147C29.3567 38.8983 29.0578 38.9026 28.6933 38.9267C28.49 38.9431 28.2989 38.9871 28.1156 39.0621C27.9322 39.1371 27.77 39.2285 27.6289 39.3388C27.4867 39.4492 27.3744 39.5724 27.2944 39.7104C27.2133 39.8474 27.1733 39.9802 27.1733 40.1052C27.1733 40.419 27.2889 40.6724 27.5222 40.8655C27.7544 41.0586 28.0433 41.2267 28.3878 41.3724C28.7322 41.5181 29.1056 41.6595 29.5122 41.7966C29.9167 41.9336 30.2944 42.1017 30.6444 42.2974C30.9944 42.4931 31.2844 42.7397 31.5178 43.0336C31.75 43.3285 31.8667 43.7069 31.8667 44.1707C31.8711 44.4854 31.7867 44.7897 31.62 45.0845Z" fill="black"/>
<path d="M50 33.6207V12.05C50 11.3897 49.8978 10.9009 49.3889 10.5052L36.4589 0.474138C36.0711 0.173276 35.5333 0 34.9833 0H2.73667C1.41889 0 0 0.789655 0 2.52241V33.6207H50ZM25.5556 27.5862C25.5556 28.0621 25.0589 28.4483 24.4444 28.4483C23.83 28.4483 23.3333 28.0621 23.3333 27.5862V25C23.3333 24.5241 23.83 24.1379 24.4444 24.1379C25.0589 24.1379 25.5556 24.5241 25.5556 25V27.5862ZM34.4444 2.92328C34.4444 2.52845 35.0589 2.33103 35.4189 2.61034L46.6356 11.3129C46.9956 11.5922 46.7411 12.069 46.2322 12.069H34.4444V2.92328ZM33.3333 19.8276V16.3793C33.3333 15.9043 32.8356 15.5172 32.2222 15.5172C31.6078 15.5172 31.1111 15.131 31.1111 14.6552C31.1111 14.1793 31.6078 13.7931 32.2222 13.7931C34.06 13.7931 35.5556 14.9534 35.5556 16.3793V19.8276C35.5556 20.7784 36.5522 21.5517 37.7778 21.5517C38.3922 21.5517 38.8889 21.9379 38.8889 22.4138C38.8889 22.8897 38.3922 23.2759 37.7778 23.2759C36.5522 23.2759 35.5556 24.0491 35.5556 25V28.4483C35.5556 29.8741 34.06 31.0345 32.2222 31.0345C31.6078 31.0345 31.1111 30.6483 31.1111 30.1724C31.1111 29.6966 31.6078 29.3103 32.2222 29.3103C32.8356 29.3103 33.3333 28.9233 33.3333 28.4483V25C33.3333 23.9655 33.9356 23.0466 34.8689 22.4138C33.9356 21.781 33.3333 20.8621 33.3333 19.8276ZM24.4444 18.1034C25.3644 18.1034 26.1111 18.6828 26.1111 19.3966C26.1111 20.1103 25.3644 20.6897 24.4444 20.6897C23.5244 20.6897 22.7778 20.1103 22.7778 19.3966C22.7778 18.6828 23.5244 18.1034 24.4444 18.1034ZM11.1111 21.5517C12.3367 21.5517 13.3333 20.7784 13.3333 19.8276V16.3793C13.3333 14.9534 14.8289 13.7931 16.6667 13.7931C17.2811 13.7931 17.7778 14.1793 17.7778 14.6552C17.7778 15.131 17.2811 15.5172 16.6667 15.5172C16.0533 15.5172 15.5556 15.9043 15.5556 16.3793V19.8276C15.5556 20.8621 14.9533 21.781 14.02 22.4138C14.9533 23.0466 15.5556 23.9655 15.5556 25V28.4483C15.5556 28.9233 16.0533 29.3103 16.6667 29.3103C17.2811 29.3103 17.7778 29.6966 17.7778 30.1724C17.7778 30.6483 17.2811 31.0345 16.6667 31.0345C14.8289 31.0345 13.3333 29.8741 13.3333 28.4483V25C13.3333 24.0491 12.3367 23.2759 11.1111 23.2759C10.4967 23.2759 10 22.8897 10 22.4138C10 21.9379 10.4967 21.5517 11.1111 21.5517Z" fill="black"/>
</svg>
