<svg width="44" height="40" viewBox="0 0 44 40" fill="none" xmlns="http://www.w3.org/2000/svg">
<g clip-path="url(#clip0)">
<path d="M35.3632 39.9999C33.5325 39.9999 31.3215 39.5829 28.89 38.7487C23.5592 36.9217 17.7594 33.3106 12.5589 28.5829C7.3569 23.8538 3.38475 18.5799 1.37351 13.7338C-0.454209 9.32758 -0.458649 5.71116 1.36315 4.05632C1.6251 3.81818 1.89149 3.56256 2.16676 3.29886C3.82873 1.70995 5.70677 -0.0780874 8.19602 0.00263646C9.91127 0.0672155 11.5732 1.0359 13.2752 2.96116C18.304 8.64681 16.0367 10.673 13.4128 13.022L12.9496 13.4391C12.5204 13.8293 11.7094 15.6361 19.2541 22.495C21.7167 24.7337 23.8168 26.3724 25.495 27.364C26.5517 27.9882 28.4416 28.9327 29.217 28.2277L29.6832 27.7999C32.2642 25.4199 34.493 23.3655 40.7428 27.9331C42.8606 29.4803 43.9247 30.9898 43.9957 32.5518C44.0978 34.8134 42.1162 36.5248 40.3669 38.0343C40.0783 38.2846 39.7971 38.5267 39.5352 38.7635C38.6309 39.5869 37.185 39.9999 35.3632 39.9999ZM8.01843 1.34534C6.2499 1.34534 4.65305 2.87371 3.23971 4.22584C2.95557 4.49761 2.6803 4.76131 2.40947 5.00751C1.05237 6.2399 1.19 9.47827 2.75873 13.2602C4.69745 17.9314 8.54973 23.0358 13.6067 27.6331C18.6621 32.2276 24.2741 35.7297 29.4139 37.4908C33.574 38.9196 37.1362 39.0407 38.4903 37.8096C38.7612 37.5634 39.0512 37.3132 39.3502 37.0562C40.8701 35.7431 42.5942 34.2551 42.5187 32.6043C42.4669 31.4701 41.5582 30.2499 39.8178 28.9785C34.6099 25.171 33.1537 26.515 30.7384 28.7417L30.2648 29.1762C29.1105 30.227 27.2354 29.9942 24.6899 28.4901C22.9244 27.446 20.7429 25.7482 18.2093 23.4435C11.9477 17.7525 9.94531 14.2692 11.9047 12.4839L12.3768 12.0601C14.8321 9.8644 16.3135 8.53918 12.1238 3.80204C10.7223 2.2212 9.38145 1.39512 8.13386 1.34669C8.09538 1.34534 8.05691 1.34534 8.01843 1.34534Z" fill="black" stroke="black"/>
</g>
<defs>
<clipPath id="clip0">
<rect width="44" height="40" fill="white"/>
</clipPath>
</defs>
</svg>
