<svg width="25" height="25" viewBox="0 0 25 25" fill="none" xmlns="http://www.w3.org/2000/svg">
<path d="M23.6702 0H1.32979C0.595213 0 0 0.595479 0 1.32979V23.6702C0 24.4045 0.595213 25 1.32979 25H23.6702C24.4048 25 25 24.4045 25 23.6702V1.32979C25 0.595479 24.4048 0 23.6702 0ZM14.0989 17.1149C12.8133 17.1149 11.6045 16.4202 11.191 15.6314C11.191 15.6314 10.4995 18.3731 10.3543 18.9024C9.83883 20.7723 8.32314 22.6439 8.20585 22.7973C8.12314 22.9037 7.94202 22.8705 7.92314 22.729C7.89043 22.4907 7.50346 20.1309 7.95851 18.2064C8.18644 17.2396 9.48936 11.7213 9.48936 11.7213C9.48936 11.7213 9.10957 10.9614 9.10957 9.83777C9.10957 8.0742 10.1324 6.75718 11.4051 6.75718C12.4875 6.75718 13.0101 7.56995 13.0101 8.54415C13.0101 9.63218 12.3173 11.2593 11.9598 12.767C11.6612 14.0301 12.5923 15.0596 13.8375 15.0596C16.0923 15.0596 17.6106 12.1633 17.6106 8.73192C17.6106 6.12394 15.8553 4.17101 12.6596 4.17101C9.05027 4.17101 6.79947 6.86356 6.79947 9.87128C6.79947 10.908 7.10585 11.6399 7.58537 12.2053C7.80505 12.4654 7.83617 12.5699 7.75638 12.8686C7.69814 13.088 7.56835 13.6146 7.51383 13.8234C7.43431 14.1253 7.19016 14.2332 6.91755 14.1215C5.25532 13.4428 4.48032 11.6221 4.48032 9.575C4.48032 6.19441 7.33165 2.14016 12.9862 2.14016C17.5303 2.14016 20.5207 5.42793 20.5207 8.95798C20.5202 13.6266 17.9242 17.1149 14.0989 17.1149Z" fill="black"/>
</svg>
