<svg width="50" height="50" viewBox="0 0 50 50" fill="none" xmlns="http://www.w3.org/2000/svg">
<path d="M33.1214 23.4239C36.9178 21.6026 37.4836 7.73975 35.2439 3.65659C32.3182 -1.67386 18.4108 -0.603423 14.0193 3.2067C13.5151 5.09935 13.5679 8.53404 13.5913 11.2644H27.3756V12.5427H13.5943C13.5943 12.5614 7.45849 12.5831 7.45849 12.5831C-3.12154 12.5831 -2.90167 36.9021 11.0585 36.9021C11.0585 36.9021 11.5715 31.5158 12.4685 28.8164C15.2389 20.4857 26.8772 26.4211 33.1214 23.4239ZM18.6893 9.2911C17.1004 9.2911 15.8135 7.92902 15.8135 6.24425C15.8135 4.56258 17.1004 3.19739 18.6893 3.19739C20.2812 3.19739 21.5681 4.56258 21.5681 6.24425C21.5711 7.92591 20.2812 9.2911 18.6893 9.2911Z" fill="#030104"/>
<path d="M38.4619 13.0957C38.4619 13.0957 38.0954 18.4851 37.1984 21.1814C34.4281 29.509 22.7927 23.5766 16.5455 26.5739C12.752 28.3951 12.1804 42.258 14.423 46.3412C17.3458 51.6747 31.2532 50.6043 35.6476 46.7911C36.1518 44.9015 36.099 41.4668 36.0756 38.7365H22.2884V37.4581H36.0697C36.0697 37.4395 42.8622 37.4178 42.8622 37.4178C52.6126 37.4178 53.4862 13.0957 38.4619 13.0957ZM30.4822 40.1792C32.0711 40.1792 33.361 41.5413 33.361 43.2261C33.361 44.9077 32.0711 46.2698 30.4822 46.2698C28.8933 46.2698 27.6063 44.9077 27.6063 43.2261C27.6063 41.5413 28.8933 40.1792 30.4822 40.1792Z" fill="#030104"/>
</svg>
