<svg width="25" height="25" viewBox="0 0 25 25" fill="none" xmlns="http://www.w3.org/2000/svg">
<path d="M5.3904 11.0018C5.09891 10.7723 4.73907 10.6406 4.3646 10.6406C3.44678 10.6406 2.69971 11.388 2.69971 12.3066C2.69971 12.839 2.95795 13.3297 3.37391 13.6388C3.72019 12.6481 4.42311 11.7478 5.3904 11.0018Z" fill="#242323"/>
<path d="M7.95215 13.8947C7.95215 13.1349 8.57023 12.5171 9.32928 12.5171C10.0883 12.5171 10.7059 13.1344 10.7059 13.8947C10.7059 14.6538 10.0883 15.2708 9.32928 15.2708C8.57023 15.2708 7.95215 14.6538 7.95215 13.8947ZM15.8402 17.9767C15.1476 18.6705 14.058 19.0075 12.5115 19.0075C12.5072 19.0075 12.5043 19.0057 12.5 19.0057C12.4958 19.0057 12.4928 19.0075 12.4886 19.0075C10.9418 19.0075 9.85295 18.6705 9.1588 17.9767C9.033 17.8501 9.033 17.645 9.15933 17.5184C9.28566 17.3926 9.49124 17.3926 9.61757 17.5184C10.1833 18.0849 11.1224 18.3604 12.4886 18.3604C12.4928 18.3604 12.4958 18.3623 12.5 18.3623C12.5043 18.3623 12.5072 18.3604 12.5115 18.3604C13.8771 18.3604 14.8162 18.0849 15.383 17.5184C15.5093 17.3926 15.7144 17.3926 15.8412 17.5184C15.9668 17.645 15.9668 17.8501 15.8402 17.9767ZM15.6764 15.2708C14.9173 15.2708 14.2998 14.6538 14.2998 13.8947C14.2998 13.1349 14.917 12.5171 15.6764 12.5171C16.4349 12.5171 17.0524 13.1344 17.0524 13.8947C17.0524 14.6538 16.4349 15.2708 15.6764 15.2708Z" fill="#242323"/>
<path d="M19.6388 6.89113C20.3239 6.89113 20.8813 6.33289 20.8813 5.64672C20.8813 4.96081 20.3239 4.40283 19.6388 4.40283C18.9526 4.40283 18.3936 4.96081 18.3936 5.64672C18.3936 6.33315 18.9526 6.89113 19.6388 6.89113Z" fill="#242323"/>
<path d="M20.6335 10.6406C20.2367 10.6406 19.8633 10.784 19.5659 11.0337C20.5279 11.7858 21.222 12.6917 21.5574 13.6877C22.0151 13.3829 22.2992 12.8741 22.2992 12.3066C22.2994 11.3877 21.5524 10.6406 20.6335 10.6406Z" fill="#242323"/>
<path d="M23.6702 0H1.32979C0.595213 0 0 0.595213 0 1.32979V23.6702C0 24.4048 0.595213 25 1.32979 25H23.6702C24.4048 25 25 24.4048 25 23.6702V1.32979C25 0.595213 24.4048 0 23.6702 0ZM21.725 14.3412C21.7644 14.5715 21.7894 14.8043 21.7894 15.0418C21.7894 18.4617 17.6027 21.2441 12.4564 21.2441C7.31064 21.2441 3.12447 18.4617 3.12447 15.0418C3.12447 14.7904 3.15346 14.5426 3.19814 14.2981C2.49574 13.887 2.05213 13.1322 2.05213 12.3066C2.05213 11.0311 3.08936 9.99255 4.36463 9.99255C4.94734 9.99255 5.50213 10.2247 5.92819 10.6178C7.5742 9.54441 9.8141 8.87527 12.2867 8.84495L13.7271 4.29176C13.7785 4.13005 13.9463 4.03431 14.1098 4.07447L17.8785 4.96144C18.1543 4.25771 18.837 3.75638 19.6378 3.75638C20.6803 3.75638 21.5285 4.60479 21.5285 5.64734C21.5285 6.69096 20.6803 7.53936 19.6378 7.53936C18.5936 7.53936 17.7449 6.69096 17.7449 5.64734C17.7449 5.62979 17.7492 5.61436 17.7505 5.59707L14.2537 4.77367L12.9628 8.85638C15.3269 8.94069 17.4628 9.60585 19.0399 10.6505C19.4683 10.2362 20.029 9.99229 20.634 9.99229C21.9098 9.99229 22.9476 11.0309 22.9476 12.3064C22.9476 13.1721 22.4745 13.942 21.725 14.3412Z" fill="#242323"/>
</svg>
