<svg width="25" height="25" viewBox="0 0 25 25" fill="none" xmlns="http://www.w3.org/2000/svg">
<path d="M23.6702 0H1.32979C0.595479 0 0 0.595479 0 1.32979V23.6702C0 24.4045 0.595479 25 1.32979 25H23.6702C24.4048 25 25 24.4045 25 23.6702V1.32979C25 0.595479 24.4048 0 23.6702 0ZM22.8388 6.19734C22.2745 7.04229 21.575 7.77234 20.7598 8.36862C20.7662 8.53245 20.7694 8.69654 20.7694 8.86197C20.7694 14.7968 16.2537 20.9354 8.69601 20.9354C6.38564 20.9354 4.13644 20.2761 2.19122 19.0287C2.1508 19.0029 2.13351 18.9527 2.15 18.9074C2.16622 18.8625 2.21223 18.8348 2.25878 18.8399C2.58564 18.8787 2.91888 18.8981 3.25053 18.8981C5.04787 18.8981 6.74947 18.3426 8.18856 17.2883C6.4633 17.1428 4.98059 15.975 4.44707 14.3098C4.43617 14.275 4.44415 14.2378 4.46835 14.2101C4.49229 14.1827 4.52926 14.1713 4.56463 14.1774C5.04255 14.2684 5.52846 14.2737 5.99734 14.1981C4.21808 13.6449 2.96729 11.9785 2.96729 10.0809L2.96782 10.0255C2.96862 9.98936 2.9883 9.95638 3.01915 9.93883C3.05053 9.92074 3.08936 9.92048 3.12048 9.93803C3.58404 10.1955 4.0984 10.3612 4.62447 10.4242C3.60213 9.60931 3.0016 8.37394 3.0016 7.05239C3.0016 6.28989 3.20372 5.54016 3.58511 4.88537C3.60213 4.85638 3.63245 4.83697 3.66622 4.83484C3.7 4.83138 3.73271 4.84601 3.75372 4.87261C5.84681 7.43936 8.925 9.02021 12.2168 9.22314C12.1614 8.94654 12.1338 8.66197 12.1338 8.37447C12.1338 5.99787 14.0676 4.06463 16.4439 4.06463C17.613 4.06463 18.7415 4.54495 19.5505 5.38378C20.4633 5.19787 21.3316 4.8625 22.1343 4.38644C22.1713 4.36463 22.2173 4.36809 22.2508 4.39441C22.284 4.42128 22.2976 4.46569 22.2843 4.50638C22.0128 5.35718 21.4816 6.0992 20.7694 6.63511C21.4404 6.51835 22.0923 6.32074 22.7114 6.04628C22.7532 6.02713 22.8024 6.0391 22.8319 6.07394C22.8614 6.10904 22.8646 6.15904 22.8388 6.19734Z" fill="black"/>
</svg>
